<svg width="146" height="100" viewBox="0 0 146 100" fill="none" xmlns="http://www.w3.org/2000/svg">
<rect x="12" width="61" height="100" fill="#0A9396"/>
<rect x="73" width="61" height="100" fill="#0B7678"/>
<path d="M12 0H73L61 27H0L12 0Z" fill="#94D2BD"/>
<path d="M85 27H146L134 0H73L85 27Z" fill="#94D2BD"/>
<path fill-rule="evenodd" clip-rule="evenodd" d="M26 44.375C26 41.9588 27.9588 40 30.375 40C32.7912 40 34.75 41.9588 34.75 44.375V56.25H47.25V44.375C47.25 41.9588 49.2088 40 51.625 40C54.0412 40 56 41.9588 56 44.375V56.25V65V75.625C56 78.0412 54.0412 80 51.625 80C49.2088 80 47.25 78.0412 47.25 75.625V65H34.75V75.625C34.75 78.0412 32.7912 80 30.375 80C27.9588 80 26 78.0412 26 75.625V65V56.25V44.375Z" fill="#0B7678"/>
</svg>
