<svg width="239" height="297" viewBox="0 0 239 297" fill="none" xmlns="http://www.w3.org/2000/svg">
<path d="M233.957 0.224542C233.616 0.0527808 233.234 -0.0221845 232.853 0.00778683C232.473 0.0377581 232.107 0.171522 231.797 0.394544L3.0071 132.525C2.13801 133.083 1.4132 133.838 0.89182 134.73C0.370445 135.621 0.067288 136.624 0.00710019 137.655V291.905C-0.0282219 292.405 0.0686812 292.906 0.288083 293.357C0.507485 293.808 0.841668 294.193 1.2571 294.475C1.7371 294.735 4.2571 296.215 5.0371 296.625C5.3067 296.763 5.60831 296.826 5.91071 296.809C6.21311 296.791 6.50531 296.693 6.7571 296.525L235.577 164.345C236.447 163.787 237.172 163.032 237.693 162.14C238.215 161.248 238.518 160.246 238.577 159.215V4.21454C238.627 3.82839 238.568 3.43588 238.405 3.0821C238.242 2.72832 237.983 2.42762 237.657 2.21454C237.097 2.02454 234.497 0.584542 233.957 0.224542Z" fill="#0A9396"/>
<path d="M6.79712 134.675L235.577 2.58454C237.217 1.64454 238.577 2.41454 238.577 4.30454V159.305C238.518 160.336 238.215 161.338 237.693 162.23C237.172 163.122 236.447 163.877 235.577 164.435L6.79712 296.525C5.15712 297.465 3.79712 295.935 3.79712 294.045V139.805C3.85651 138.773 4.15933 137.771 4.68078 136.879C5.20223 135.987 5.92747 135.232 6.79712 134.675V134.675Z" fill="#FAFAFA"/>
<path d="M236.907 3.13454C237.457 3.13454 237.547 3.83454 237.547 4.25454V159.255C237.493 160.107 237.242 160.936 236.813 161.675C236.385 162.414 235.79 163.044 235.077 163.515L6.29712 295.655C6.15546 295.752 5.98903 295.808 5.81712 295.815C5.29712 295.815 4.81712 294.985 4.81712 294.045V139.805C4.87102 138.95 5.12209 138.12 5.55064 137.379C5.97918 136.639 6.57355 136.007 7.28712 135.535L236.077 3.40454C236.327 3.24628 236.612 3.15343 236.907 3.13454V3.13454ZM236.907 2.13454C236.437 2.15233 235.979 2.29002 235.577 2.53455L6.79712 134.675C5.92747 135.232 5.20223 135.987 4.68078 136.879C4.15933 137.771 3.85651 138.773 3.79712 139.805V294.045C3.79712 295.545 4.62712 296.815 5.79712 296.815C6.15073 296.811 6.49665 296.711 6.79712 296.525L235.577 164.345C236.447 163.787 237.172 163.032 237.693 162.14C238.215 161.248 238.518 160.246 238.577 159.215V4.21455C238.577 2.86455 237.907 2.09454 236.937 2.09454L236.907 2.13454Z" fill="#E0E0E0"/>
<path d="M1.28716 294.475C1.60716 294.645 3.91716 295.965 4.92716 296.535C4.56229 296.235 4.27339 295.853 4.08399 295.42C3.89458 294.987 3.81001 294.516 3.83717 294.045V149.495L0.0371636 147.275V291.905C0.00586357 292.404 0.104552 292.904 0.323609 293.354C0.542667 293.805 0.874625 294.191 1.28716 294.475V294.475Z" fill="#F0F0F0"/>
<path d="M238.547 4.22451C238.547 2.35451 237.207 1.59451 235.547 2.53451L6.79712 134.675C5.92747 135.232 5.20223 135.987 4.68078 136.879C4.15933 137.771 3.85651 138.773 3.79712 139.805V149.495L238.547 13.9545V4.22451Z" fill="#0A9396"/>
<g opacity="0.4">
<path opacity="0.4" d="M235.577 2.58454L6.79702 134.675C5.92336 135.217 5.20368 135.974 4.70702 136.875L0.947021 134.695C1.43619 133.806 2.14559 133.059 3.00702 132.525L231.797 0.39454C232.106 0.172847 232.469 0.0390206 232.847 0.007322C233.226 -0.0243766 233.606 0.0472399 233.947 0.21454C234.477 0.54454 236.947 1.94454 237.567 2.27454C237.235 2.16238 236.88 2.13199 236.534 2.18596C236.188 2.23992 235.859 2.37665 235.577 2.58454V2.58454Z" fill="white"/>
</g>
<path opacity="0.15" d="M0.0371094 147.285V137.655C0.0743693 136.592 0.388031 135.558 0.947113 134.655L4.71711 136.825C4.17387 137.712 3.87062 138.725 3.83711 139.765V149.455L0.0371094 147.285Z" fill="black"/>
<path d="M3.83715 149.495L3.82715 166.955L238.537 31.4345V13.9545L3.83715 149.495Z" fill="#EBEBEB"/>
<path d="M13.6072 148.204L28.7872 139.484V148.174L13.5972 156.945L13.6072 148.204Z" fill="#E0E0E0"/>
<path d="M32.5371 137.275V140.715L40.1071 136.335V132.905L32.5371 137.275Z" fill="#E0E0E0"/>
<path d="M32.5371 142.585V146.025L40.1071 141.645V138.215L32.5371 142.585Z" fill="#E0E0E0"/>
<path d="M43.8972 130.715V134.155L51.4672 129.785V126.345L43.8972 130.715Z" fill="#E0E0E0"/>
<path d="M43.8972 136.025V139.465L51.4672 135.095V131.655L43.8972 136.025Z" fill="#E0E0E0"/>
<path d="M55.2471 124.155V127.595L62.8171 123.225V119.785L55.2471 124.155Z" fill="#E0E0E0"/>
<path d="M55.2471 129.465V132.905L62.8171 128.535V125.095L55.2471 129.465Z" fill="#E0E0E0"/>
<path d="M89.3171 104.484V107.924L96.8871 103.555V100.115L89.3171 104.484Z" fill="#E0E0E0"/>
<path d="M89.3171 109.805V113.235L96.8871 108.865V105.425L89.3171 109.805Z" fill="#E0E0E0"/>
<path d="M100.677 97.9346V101.365L108.247 96.9946V93.5546L100.677 97.9346Z" fill="#E0E0E0"/>
<path d="M100.677 103.245V106.674L108.247 102.305V98.8645L100.677 103.245Z" fill="#E0E0E0"/>
<path d="M112.027 91.3745L112.037 94.8145L119.607 90.4445V87.0045L112.027 91.3745Z" fill="#E0E0E0"/>
<path d="M112.027 96.6845L112.037 100.125L119.607 95.7445V92.3145L112.027 96.6845Z" fill="#E0E0E0"/>
<path d="M66.6072 117.605L85.5372 106.675V115.415L66.6072 126.345V117.605Z" fill="#E0E0E0"/>
<path d="M123.397 84.8145L138.577 76.0945V84.7945L123.387 93.5645L123.397 84.8145Z" fill="#E0E0E0"/>
<path d="M142.317 73.8845L142.327 77.3245L149.897 72.9545V69.5145L142.317 73.8845Z" fill="#E0E0E0"/>
<path d="M142.317 79.1945L142.327 82.6345L149.897 78.2645V74.8245L142.317 79.1945Z" fill="#E0E0E0"/>
<path d="M153.677 67.3345V70.7745L161.247 66.3945V62.9545L153.677 67.3345Z" fill="#E0E0E0"/>
<path d="M153.677 72.6445V76.0845L161.247 71.7045V68.2645L153.677 72.6445Z" fill="#E0E0E0"/>
<path d="M165.037 60.7745V64.2145L172.607 59.8345V56.3945L165.037 60.7745Z" fill="#E0E0E0"/>
<path d="M165.037 66.0845V69.5245L172.607 65.1445V61.7145L165.037 66.0845Z" fill="#E0E0E0"/>
<path d="M199.107 41.1045V44.5445L206.677 40.1646V36.7245L199.107 41.1045Z" fill="#E0E0E0"/>
<path d="M199.107 46.4146V49.8546L206.677 45.4746V42.0446L199.107 46.4146Z" fill="#E0E0E0"/>
<path d="M210.467 34.5446V37.9846L218.037 33.6146V30.1746L210.467 34.5446Z" fill="#E0E0E0"/>
<path d="M210.467 39.8546V43.2946L218.037 38.9246V35.4846L210.467 39.8546Z" fill="#E0E0E0"/>
<path d="M221.817 27.9846V31.4246L229.397 27.0546V23.6146L221.817 27.9846Z" fill="#E0E0E0"/>
<path d="M221.817 33.2946V36.7346L229.397 32.3646V28.9246L221.817 33.2946Z" fill="#E0E0E0"/>
<path d="M176.397 54.2145L195.327 43.2845V52.0345L176.397 62.9546V54.2145Z" fill="#E0E0E0"/>
<path d="M3.83711 149.495L0.0371094 147.275V164.765L3.82711 166.955L3.83711 149.495Z" fill="#E0E0E0"/>
<path d="M177.977 42.0445V42.6945C177.977 43.6945 178.697 44.1345 179.587 43.6245L225.587 17.0745C226.056 16.7666 226.446 16.3528 226.726 15.8664C227.005 15.38 227.167 14.8348 227.197 14.2745V13.6345C227.197 12.6345 226.477 12.1845 225.587 12.7045L179.587 39.2545C179.118 39.5597 178.727 39.9715 178.447 40.4564C178.168 40.9413 178.006 41.4855 177.977 42.0445Z" fill="#F5F5F5"/>
<path d="M227.187 14.2745V13.6345C227.187 12.6345 226.467 12.1845 225.577 12.7045L219.577 16.1445V20.5145L225.577 17.0745C226.046 16.7666 226.436 16.3528 226.716 15.8664C226.996 15.38 227.157 14.8348 227.187 14.2745V14.2745Z" fill="#455A64"/>
<path d="M7.61694 169.125L234.767 38.0045V46.7245L26.5369 166.955V280.605L7.61694 291.525V169.125Z" fill="#F0F0F0"/>
<path d="M26.5371 166.954L45.4571 156.034V164.754L26.5371 175.694V166.954Z" fill="#0A9396"/>
<path d="M26.5371 236.884L45.4571 225.964V234.684L26.5371 245.624V236.884Z" fill="#0A9396"/>
<path d="M26.5371 245.624L45.4571 234.704V243.424L26.5371 254.364V245.624Z" fill="#0A9396"/>
<path opacity="0.8" d="M26.5371 245.624L45.4571 234.704V243.424L26.5371 254.364V245.624Z" fill="white"/>
<path d="M140.097 171.315L159.017 160.395V169.115L140.097 180.055V171.315Z" fill="#0A9396"/>
<path opacity="0.3" d="M140.097 171.315L159.017 160.395V169.115L140.097 180.055V171.315Z" fill="black"/>
<path d="M140.097 180.055L159.017 169.135V177.855L140.097 188.795V180.055Z" fill="#0A9396"/>
<path opacity="0.4" d="M140.097 180.055L159.017 169.135V177.855L140.097 188.795V180.055Z" fill="black"/>
<path d="M140.097 188.805L159.017 177.885V186.605L140.097 197.545V188.805Z" fill="#0A9396"/>
<path opacity="0.5" d="M140.097 188.805L159.017 177.885V186.605L140.097 197.545V188.805Z" fill="black"/>
<path d="M140.097 197.545L159.017 186.625V195.345L140.097 206.285V197.545Z" fill="#0A9396"/>
<path opacity="0.3" d="M140.097 197.545L159.017 186.625V195.345L140.097 206.285V197.545Z" fill="black"/>
<path d="M121.187 112.305L140.097 101.385V145.095L121.187 156.035V112.305Z" fill="#0A9396"/>
<path d="M121.187 164.764L140.097 153.844V215.034L121.187 225.975V164.764Z" fill="#0A9396"/>
<path d="M45.457 208.475L64.367 197.555V206.275L45.457 217.215V208.475Z" fill="#0A9396"/>
<path opacity="0.3" d="M45.457 208.475L64.367 197.555V206.275L45.457 217.215V208.475Z" fill="black"/>
<path d="M83.3269 142.905L102.247 131.984V140.704L83.3269 151.645V142.905Z" fill="#0A9396"/>
<path opacity="0.6" d="M83.3269 142.905L102.247 131.984V140.704L83.3269 151.645V142.905Z" fill="white"/>
<path d="M177.977 140.714L196.887 129.794V138.514L177.977 149.454V140.714Z" fill="#0A9396"/>
<path opacity="0.8" d="M177.977 140.714L196.887 129.794V138.514L177.977 149.454V140.714Z" fill="white"/>
<path d="M177.977 158.204L196.887 147.284V156.004L177.977 166.944V158.204Z" fill="#0A9396"/>
<path d="M7.40701 168.734L7.177 168.865V292.345L234.987 160.795L235.227 160.665V37.1845L7.40701 168.734ZM234.317 151.405L216.317 161.795V154.125L234.317 143.745V151.405ZM8.08701 178.145L26.087 167.755V175.424L8.08701 185.815V178.145ZM120.727 165.585V173.255L102.727 183.645V175.975L120.727 165.585ZM102.727 174.895V167.225L120.727 156.835V164.505L102.727 174.895ZM121.657 165.045L139.657 154.655V162.325L121.657 172.715V165.045ZM121.657 163.965V156.305L139.657 145.905V153.585L121.657 163.965ZM121.657 155.225V147.585L139.657 137.195V144.865L121.657 155.225ZM121.657 146.475V138.815L139.657 128.415V136.085L121.657 146.475ZM120.727 147.015L102.727 157.405V149.735L120.727 139.345V147.015ZM120.727 148.095V155.765L102.727 166.155V158.485L120.727 148.095ZM101.797 166.695L83.797 177.085V169.415L101.797 159.025V166.695ZM101.797 167.764V175.435L83.797 185.825V178.155L101.797 167.764ZM101.797 176.514V184.185L83.797 194.575V186.905L101.797 176.514ZM101.797 185.255V192.924L83.797 203.315V195.645L101.797 185.255ZM102.727 184.715L120.727 174.325V181.995L102.727 192.385V184.715ZM120.727 183.075V190.745L102.727 201.135V193.465L120.727 183.075ZM121.657 182.535L139.657 172.145V179.815L121.657 190.204V182.535ZM121.657 181.454V173.785L139.657 163.395V171.065L121.657 181.454ZM140.587 162.865L158.587 152.475V160.145L140.587 170.535V162.865ZM140.587 161.785V154.115L158.587 143.725V151.395L140.587 161.785ZM140.587 153.045V145.375L158.587 134.985V142.655L140.587 153.045ZM140.587 144.295V136.585L158.587 126.195V133.865L140.587 144.295ZM140.587 135.555V127.885L158.587 117.495V125.155L140.587 135.555ZM140.587 126.805V119.135L158.587 108.745V116.415L140.587 126.805ZM139.657 127.345L121.657 137.735V130.065L139.657 119.675V127.345ZM120.727 138.275L102.727 148.665V140.995L120.727 130.605V138.275ZM101.797 149.205L83.797 159.595V151.925L101.797 141.535V149.205ZM101.797 150.275V157.945L83.797 168.335V160.665L101.797 150.275ZM82.867 168.875L64.867 179.264V171.585L82.867 161.195V168.875ZM82.867 169.954V177.585L64.867 187.984V180.315L82.867 169.954ZM82.867 178.695V186.365L64.867 196.755V189.085L82.867 178.695ZM82.867 187.445V195.105L64.867 205.505V197.835L82.867 187.445ZM82.867 196.185V203.855L64.867 214.245V206.585L82.867 196.185ZM82.867 204.935V212.585L64.867 222.984V215.315L82.867 204.935ZM83.797 204.395L101.797 194.005V201.674L83.797 212.065V204.395ZM101.797 202.745V210.415L83.797 220.805V213.135L101.797 202.745ZM102.727 202.204L120.727 191.815V199.484L102.727 209.875V202.204ZM121.657 191.275L139.657 180.885V188.585L121.657 198.975V191.275ZM140.587 180.355L158.587 169.965V177.635L140.587 188.025V180.355ZM140.587 179.275V171.585L158.587 161.195V168.865L140.587 179.275ZM159.517 160.675L177.517 150.285V157.955L159.517 168.345V160.675ZM159.517 159.605V151.935L177.517 141.545V149.215L159.517 159.605ZM159.517 150.855V143.185L177.517 132.795V140.465L159.517 150.855ZM159.517 142.115V134.445L177.517 124.055V131.725L159.517 142.115ZM159.517 133.365V125.695L177.517 115.305V122.975L159.517 133.365ZM159.517 124.625V116.955L177.517 106.565V114.235L159.517 124.625ZM159.517 115.875V108.205L177.517 97.8145V105.485L159.517 115.875ZM159.517 107.135V99.4645L177.517 89.0745V96.7445L159.517 107.135ZM158.587 107.665L140.587 118.065V110.395L158.587 100.005V107.665ZM139.657 118.585L121.657 128.975V121.315L139.657 110.915V118.585ZM120.727 129.515L102.727 139.905V132.235L120.727 121.845V129.515ZM101.797 140.445L83.797 150.835V143.165L101.797 132.775V140.445ZM82.867 151.385L64.867 161.775V154.105L82.867 143.715V151.385ZM82.867 152.465V160.125L64.867 170.525V162.855L82.867 152.465ZM63.937 171.055L45.937 181.445V173.785L63.937 163.385V171.055ZM63.937 172.135V179.805L45.937 190.195V182.525L63.937 172.135ZM63.937 180.875V188.585L45.937 198.975V191.305L63.937 180.875ZM63.937 189.625V197.295L45.937 207.685V200.014L63.937 189.625ZM63.937 198.365V206.035L45.937 216.424V208.764L63.937 198.365ZM63.937 207.115V214.785L45.937 225.174V217.505L63.937 207.115ZM63.937 215.855V223.525L45.937 233.914V226.255L63.937 215.855ZM63.937 224.604V232.275L45.937 242.664V234.995L63.937 224.604ZM64.867 224.065L82.867 213.674V221.345L64.867 231.734V224.065ZM82.867 222.424V230.095L64.867 240.484V232.815L82.867 222.424ZM83.797 221.884L101.797 211.495V219.164L83.797 229.555V221.884ZM102.727 210.954L120.727 200.565V208.234L102.727 218.625V210.954ZM121.657 200.025L139.657 189.635V197.305L121.657 207.695V200.025ZM140.587 189.095L158.587 178.704V186.375L140.587 196.764V189.095ZM159.517 178.165L177.517 167.775V175.445L159.517 185.835V178.165ZM159.517 177.095V169.424L177.517 159.035V166.704L159.517 177.095ZM178.407 158.495L196.407 148.105V155.775L178.407 166.165V158.495ZM178.407 157.415V149.745L196.407 139.355V147.025L178.407 157.415ZM178.407 148.675V141.005L196.407 130.585V138.255L178.407 148.675ZM178.407 139.925V132.255L196.407 121.865V129.585L178.407 139.925ZM178.407 131.185V123.515L196.407 113.125V120.795L178.407 131.185ZM178.407 122.435V114.765L196.407 104.375V112.045L178.407 122.435ZM178.407 113.695V106.025L196.407 95.6345V103.305L178.407 113.695ZM178.407 104.945V97.2745L196.407 86.8845V94.5845L178.407 104.945ZM178.407 96.2045V88.5845L196.407 78.1945V85.8645L178.407 96.2045ZM178.407 87.4545V79.7845L196.407 69.3945V77.0645L178.407 87.4545ZM177.477 87.9945L159.477 98.3845V90.7145L177.477 80.3245V87.9945ZM158.547 98.9245L140.547 109.315V101.645L158.547 91.2545V98.9245ZM139.617 109.855L121.617 120.245V112.585L139.617 102.195V109.855ZM120.727 120.785L102.727 131.175V123.505L120.727 113.115V120.785ZM101.797 131.715L83.797 142.105V134.435L101.797 124.045V131.715ZM82.867 142.635L64.867 153.035V145.365L82.867 134.975V142.635ZM63.937 153.585L45.937 163.975V156.315L63.937 145.915V153.585ZM63.937 154.665V162.335L45.937 172.725V165.055L63.937 154.665ZM45.007 173.264L27.007 183.655V175.984L45.007 165.595V173.264ZM45.007 174.335V182.005L27.007 192.395V184.725L45.007 174.335ZM45.007 183.085V190.755L27.007 201.145V193.475L45.007 183.085ZM45.007 191.825V199.495L27.007 209.885V202.215L45.007 191.825ZM45.007 200.575V208.245L27.007 218.585V210.915L45.007 200.575ZM45.007 209.315V216.984L27.007 227.375V219.685L45.007 209.315ZM45.007 218.065V225.734L27.007 236.125V228.454L45.007 218.065ZM45.007 226.805V234.475L27.007 244.865V237.194L45.007 226.805ZM45.007 235.555V243.225L27.007 253.585V245.914L45.007 235.555ZM45.007 244.294V251.965L27.007 262.354V254.685L45.007 244.294ZM45.937 243.764L63.937 233.365V241.035L45.937 251.424V243.764ZM63.937 242.115V249.785L45.937 260.174V252.484L63.937 242.115ZM64.867 241.574L82.867 231.185V238.854L64.867 249.245V241.574ZM83.797 230.585L101.797 220.194V227.865L83.797 238.255V230.585ZM102.727 219.655L120.727 209.264V216.935L102.727 227.324V219.655ZM121.657 208.734L139.657 198.335V206.005L121.657 216.395V208.734ZM140.587 197.805L158.587 187.415V195.085L140.587 205.475V197.805ZM159.517 186.875L177.517 176.484V184.155L159.517 194.545V186.875ZM178.407 175.984L196.407 165.585V173.255L178.407 183.645V175.984ZM178.407 174.905V167.234L196.407 156.845V164.515L178.407 174.905ZM197.407 156.315L215.407 145.915V153.585L197.407 163.975V156.315ZM197.407 155.235V147.585L215.407 137.195V144.865L197.407 155.235ZM197.407 146.485V138.825L215.407 128.425V136.095L197.407 146.485ZM197.407 137.745V130.075L215.407 119.685V127.355L197.407 137.745ZM197.407 128.995V121.335L215.407 110.935V118.585L197.407 128.995ZM197.407 120.255V112.585L215.407 102.195V109.865L197.407 120.255ZM197.407 111.505V103.845L215.407 93.4445V101.115L197.407 111.505ZM197.407 102.765V95.0945L215.407 84.7045V92.3745L197.407 102.765ZM197.407 94.0145V86.3545L215.407 75.9545V83.5845L197.407 94.0145ZM197.407 85.2745V77.5845L215.407 67.1945V74.8645L197.407 85.2745ZM197.407 76.5245V68.8645L215.407 58.4645V66.1345L197.407 76.5245ZM197.407 67.7845V60.1145L215.407 49.7245V57.3945L197.407 67.7845ZM196.467 68.3245L178.467 78.7145V71.0445L196.467 60.6545V68.3245ZM177.547 79.2545L159.547 89.6445V81.9745L177.547 71.5845V79.2545ZM158.617 90.1745L140.617 100.575V92.9045L158.617 82.5145V90.1745ZM139.687 101.105L121.687 111.495V103.835L139.687 93.4445V101.105ZM120.757 112.035L102.757 122.425V114.765L120.757 104.375V112.035ZM101.827 122.965L83.827 133.355V125.695L101.827 115.305V122.965ZM82.897 133.895L64.897 144.285V136.585L82.897 126.195V133.895ZM63.967 144.825L45.967 155.215V147.585L63.967 137.185V144.825ZM45.007 155.755L27.007 166.145V158.475L45.007 148.085V155.755ZM45.007 156.825V164.495L27.007 174.885V167.215L45.007 156.825ZM8.08701 186.895L26.087 176.505V184.174L8.08701 194.565V186.895ZM8.08701 195.635L26.087 185.245V192.915L8.08701 203.305V195.635ZM8.08701 204.385L26.087 193.995V201.665L8.08701 212.055V204.385ZM8.08701 213.125L26.087 202.734V210.405L8.08701 220.794V213.125ZM8.08701 221.875L26.087 211.484V219.155L8.08701 229.544V221.875ZM8.08701 230.615L26.087 220.225V227.895L8.08701 238.285V230.615ZM8.08701 239.365L26.087 228.975V236.645L8.08701 247.035V239.365ZM8.08701 248.104L26.087 237.715V245.384L8.08701 255.775V248.104ZM8.08701 256.854L26.087 246.465V254.134L8.08701 264.525V256.854ZM8.08701 265.595L26.087 255.204V262.875L8.08701 273.264V265.595ZM8.08701 274.345L26.087 263.954V271.585L8.08701 281.975V274.345ZM27.007 263.414L45.007 253.025V260.694L27.007 271.085V263.414ZM45.007 261.764V269.405L27.007 279.805V272.155L45.007 261.764ZM45.937 261.225L63.937 250.835V258.484L45.937 268.875V261.225ZM64.867 250.305L82.867 239.914V247.585L64.867 257.975V250.305ZM83.797 239.375L101.797 228.984V236.585L83.797 246.975V239.375ZM102.727 228.444L120.727 218.055V225.694L102.727 236.085V228.444ZM121.657 217.514L139.657 207.125V214.764L121.657 225.155V217.514ZM140.587 206.585L158.587 196.195V203.835L140.587 214.225V206.585ZM159.517 195.655L177.517 185.264V192.905L159.517 203.295V195.655ZM178.407 184.725L196.407 174.335V181.975L178.407 192.365V184.725ZM197.407 173.805L215.407 163.405V171.045L197.407 181.435V173.805ZM197.407 172.725V165.055L215.407 154.665V162.335L197.407 172.725ZM234.327 142.665L216.327 153.055V145.385L234.327 134.995V142.665ZM234.327 133.915L216.327 144.305V136.635L234.327 126.255V133.915ZM234.327 125.175L216.307 135.585V127.915L234.307 117.525L234.327 125.175ZM234.327 116.425L216.327 126.815V119.145L234.327 108.755V116.425ZM234.327 107.685L216.327 118.075V110.405L234.327 100.015V107.685ZM234.327 98.9345L216.327 109.325V101.655L234.327 91.2645V98.9345ZM234.327 90.1945L216.307 100.585V92.9145L234.307 82.5245L234.327 90.1945ZM234.327 81.4445L216.327 91.8345V84.1645L234.327 73.7745V81.4445ZM234.327 72.7045L216.327 83.0945V75.4245L234.327 65.0345V72.7045ZM234.327 63.9545L216.327 74.3445V66.6745L234.327 56.2845V63.9545ZM234.327 55.2145L216.307 65.5845V57.9345L234.307 47.5445L234.327 55.2145ZM234.327 46.4645L216.327 56.8545V49.1945L234.327 38.8045V46.4645ZM26.077 159.015V166.685L8.077 177.065V169.405L26.077 159.015ZM8.077 283.085L26.077 272.694V280.335L8.077 290.725V283.085ZM216.307 170.514V162.875L234.307 152.485V160.125L216.307 170.514Z" fill="#E0E0E0"/>
<path d="M159.017 90.4345L234.767 46.7345V90.4645L159.017 134.144V90.4345Z" fill="#FAFAFA"/>
<path d="M158.507 135.015V90.1445L158.757 90.0045L235.257 45.8745V90.7545L158.507 135.015ZM159.507 90.7245V133.285L234.257 90.1745V47.5845L159.507 90.7245Z" fill="#E0E0E0"/>
<path d="M162.837 123.584H162.717C162.623 123.548 162.546 123.477 162.503 123.386C162.46 123.295 162.455 123.19 162.487 123.094L172.727 95.0945C172.747 95.0441 172.778 94.9986 172.817 94.9611C172.856 94.9236 172.903 94.8948 172.954 94.8768C173.005 94.8588 173.06 94.852 173.114 94.8568C173.168 94.8615 173.22 94.8778 173.267 94.9045L184.337 101.584L195.507 90.2045C195.575 90.1493 195.66 90.1191 195.747 90.1191C195.835 90.1191 195.919 90.1493 195.987 90.2045L206.987 97.4345L218.157 69.9145C218.178 69.8668 218.207 69.8238 218.245 69.7881C218.283 69.7525 218.327 69.7249 218.376 69.7071C218.425 69.6893 218.477 69.6817 218.528 69.6847C218.58 69.6876 218.631 69.7012 218.677 69.7245L230.027 75.5445C230.07 75.5668 230.109 75.5975 230.14 75.6347C230.172 75.6719 230.196 75.7149 230.211 75.7614C230.226 75.8078 230.231 75.8567 230.227 75.9053C230.223 75.9538 230.209 76.0012 230.187 76.0445C230.165 76.0878 230.134 76.1263 230.097 76.1578C230.06 76.1893 230.017 76.2132 229.97 76.228C229.924 76.2429 229.875 76.2485 229.826 76.2444C229.778 76.2404 229.73 76.2268 229.687 76.2045L218.687 70.5745L207.487 98.1445C207.466 98.1956 207.433 98.2411 207.392 98.2775C207.35 98.3139 207.301 98.3403 207.247 98.3545C207.199 98.3791 207.146 98.3919 207.092 98.3919C207.038 98.3919 206.985 98.3791 206.937 98.3545L195.837 91.0445L184.677 102.414C184.618 102.474 184.541 102.512 184.457 102.523C184.374 102.534 184.29 102.517 184.217 102.474L173.287 95.9345L163.207 123.465C163.161 123.515 163.103 123.553 163.038 123.574C162.973 123.595 162.904 123.599 162.837 123.584Z" fill="#455A64"/>
<path d="M173.077 93.9645C172.742 94.1833 172.464 94.4789 172.265 94.8267C172.067 95.1745 171.955 95.5645 171.937 95.9645C171.937 96.6945 172.447 96.9645 173.077 96.6245C173.412 96.405 173.689 96.1093 173.888 95.7617C174.086 95.414 174.199 95.0243 174.217 94.6245C174.217 93.8945 173.707 93.5845 173.077 93.9645Z" fill="#0A9396"/>
<path d="M184.407 100.725C184.074 100.945 183.797 101.241 183.599 101.589C183.401 101.936 183.287 102.325 183.267 102.725C183.267 103.455 183.777 103.725 184.407 103.385C184.741 103.164 185.018 102.868 185.216 102.52C185.414 102.173 185.527 101.784 185.547 101.385C185.567 100.665 185.057 100.365 184.407 100.725Z" fill="#0A9396"/>
<path d="M195.777 89.1345C195.443 89.3552 195.166 89.6511 194.968 89.9986C194.77 90.346 194.657 90.7351 194.637 91.1345C194.637 91.8645 195.147 92.1345 195.777 91.7945C196.112 91.5751 196.389 91.2794 196.588 90.9317C196.786 90.584 196.899 90.1943 196.917 89.7945C196.917 89.0745 196.407 88.7745 195.777 89.1345Z" fill="#0A9396"/>
<path d="M207.127 96.5845C206.792 96.8034 206.514 97.0989 206.315 97.4468C206.117 97.7946 206.005 98.1846 205.987 98.5845C205.987 99.3145 206.497 99.5845 207.127 99.2445C207.462 99.0257 207.741 98.7301 207.939 98.3823C208.137 98.0345 208.25 97.6445 208.267 97.2445C208.267 96.5845 207.757 96.2545 207.127 96.5845Z" fill="#0A9396"/>
<path d="M218.477 68.6745C218.142 68.8934 217.863 69.1889 217.665 69.5367C217.467 69.8845 217.354 70.2746 217.337 70.6745C217.337 71.4045 217.847 71.6745 218.477 71.3345C218.812 71.1151 219.089 70.8194 219.288 70.4717C219.486 70.124 219.599 69.7343 219.617 69.3345C219.617 68.5845 219.107 68.3045 218.477 68.6745Z" fill="#0A9396"/>
<path d="M229.827 74.4945C229.492 74.7134 229.214 75.0089 229.015 75.3567C228.817 75.7045 228.705 76.0946 228.687 76.4945C228.687 77.2245 229.197 77.4945 229.827 77.1545C230.162 76.9357 230.44 76.6401 230.639 76.2923C230.837 75.9445 230.95 75.5545 230.967 75.1545C230.967 74.4245 230.457 74.1245 229.827 74.4945Z" fill="#0A9396"/>
</svg>
