<svg width="500" height="500" viewBox="0 0 500 500" fill="none" xmlns="http://www.w3.org/2000/svg">
<path d="M249.05 480.16C381.952 480.16 489.69 417.954 489.69 341.22C489.69 264.486 381.952 202.28 249.05 202.28C116.148 202.28 8.40991 264.486 8.40991 341.22C8.40991 417.954 116.148 480.16 249.05 480.16Z" fill="#FAFAFA"/>
<path d="M380.87 430.62C407.496 430.62 429.08 418.16 429.08 402.79C429.08 387.42 407.496 374.96 380.87 374.96C354.244 374.96 332.66 387.42 332.66 402.79C332.66 418.16 354.244 430.62 380.87 430.62Z" fill="#E0E0E0"/>
<path d="M67.4601 390.32L27.9301 367.5C25.7001 366.21 25.7001 364.13 27.9301 362.84L257.87 230.08C259.122 229.452 260.504 229.125 261.905 229.125C263.306 229.125 264.688 229.452 265.94 230.08L305.48 252.91C307.71 254.19 307.71 256.28 305.48 257.57L75.5401 390.32C74.2883 390.956 72.9041 391.287 71.5001 391.287C70.096 391.287 68.7118 390.956 67.4601 390.32V390.32Z" fill="#E0E0E0"/>
<path d="M94.0001 52.74L85.0901 57.9C85.0901 57.5 85.1601 57.11 85.1601 56.72V54.13C85.1601 49.52 81.9301 47.65 77.9301 49.96C76.2158 51.0148 74.7491 52.4269 73.6301 54.1C72.9701 48.3 68.4301 46.1 62.9001 49.33C56.9001 52.78 52.0901 61.16 52.0901 68.06V71.93C52.0465 73.4765 52.3578 75.0124 53.0001 76.42L45.5701 80.71C44.4062 81.4725 43.4379 82.4978 42.7431 83.7033C42.0483 84.9088 41.6465 86.2607 41.5701 87.65C41.5701 90.21 43.3701 91.25 45.5701 89.97L94.0001 62C95.1644 61.238 96.1332 60.2128 96.8281 59.0072C97.523 57.8016 97.9244 56.4494 98.0001 55.06C98.0001 52.5 96.2401 51.46 94.0001 52.74Z" fill="#EBEBEB"/>
<path d="M140.32 74.16L133.57 78.06C133.61 77.7616 133.63 77.461 133.63 77.16V75.16C133.63 71.68 131.19 70.27 128.18 72.01C126.883 72.8013 125.774 73.866 124.93 75.13C124.43 70.76 121 69.13 116.83 71.54C112.33 74.14 108.67 80.47 108.67 85.67V88.6C108.641 89.7643 108.877 90.92 109.36 91.98L103.76 95.22C102.884 95.7971 102.156 96.572 101.635 97.4823C101.114 98.3925 100.814 99.4125 100.76 100.46C100.76 102.39 102.12 103.17 103.76 102.21L140.32 81.1C141.195 80.5223 141.923 79.7472 142.444 78.8371C142.965 77.927 143.265 76.9073 143.32 75.86C143.35 74 142 73.2 140.32 74.16Z" fill="#EBEBEB"/>
<path d="M209.56 349.65L243.56 330C247.07 328 248.82 325.32 248.82 322.67C248.82 320.02 248.82 317.95 248.82 317.95L213.56 298.06C212.576 297.417 211.757 296.552 211.17 295.534C210.582 294.516 210.243 293.374 210.18 292.2V250.3L150.82 284.6V326.5C150.885 327.673 151.225 328.815 151.812 329.833C152.399 330.851 153.217 331.716 154.2 332.36L184.2 349.65C191.19 353.69 202.55 353.69 209.56 349.65Z" fill="#263238"/>
<path d="M165.06 333.92V338.63L154.18 332.36C153.198 331.716 152.381 330.85 151.795 329.832C151.21 328.814 150.872 327.673 150.81 326.5V284.61L162.11 278.08C162.35 280.95 162.6 283.92 162.84 286.81L154.91 291.4V324.14C154.969 325.315 155.307 326.458 155.894 327.477C156.482 328.496 157.303 329.36 158.29 330L165.06 333.92Z" fill="black"/>
<path d="M154.91 324.15C154.974 325.324 155.313 326.466 155.9 327.484C156.487 328.502 157.306 329.367 158.29 330.01L184.18 344.92C191.18 348.97 202.55 348.97 209.56 344.92L243.56 325.28C250.56 321.28 250.56 314.68 243.56 310.63L217.65 295.7C216.664 295.059 215.844 294.194 215.257 293.176C214.669 292.157 214.331 291.014 214.27 289.84V257.11L154.92 291.41L154.91 324.15Z" fill="#37474F"/>
<path d="M224.54 299.69L217.65 295.69C216.664 295.049 215.844 294.184 215.257 293.166C214.669 292.147 214.331 291.004 214.27 289.83V257.11L154.91 291.41V324.15C154.974 325.324 155.313 326.466 155.9 327.484C156.487 328.502 157.306 329.367 158.29 330.01L165.06 333.91L224.54 299.69Z" fill="#263238"/>
<path d="M248.81 318V322.73C248.81 325.38 247.05 328.02 243.55 330.05L209.55 349.69C205.824 351.678 201.663 352.709 197.44 352.69V347.98C201.664 348.004 205.826 346.972 209.55 344.98L243.55 325.32C247.05 323.26 248.81 320.61 248.81 318Z" fill="#455A64"/>
<path d="M59.6001 364.84C60.8813 365.459 62.2903 365.768 63.713 365.742C65.1358 365.716 66.5325 365.356 67.7901 364.69L297.35 232.15C298.583 231.35 299.609 230.27 300.344 228.998C301.079 227.726 301.503 226.297 301.58 224.83V38.52C301.523 37.0948 301.131 35.7032 300.436 34.4576C299.741 33.2121 298.763 32.1475 297.58 31.35C296.299 30.7308 294.89 30.4217 293.467 30.4477C292.044 30.4738 290.648 30.8343 289.39 31.5L59.8601 164C58.6291 164.802 57.6045 165.882 56.8695 167.154C56.1345 168.426 55.7099 169.853 55.6301 171.32V357.67C55.6842 359.092 56.0716 360.482 56.7612 361.728C57.4508 362.973 58.4232 364.039 59.6001 364.84V364.84Z" fill="#455A64"/>
<path d="M67.7901 364.68L297.35 232.15C298.581 231.348 299.606 230.268 300.341 228.996C301.076 227.724 301.5 226.297 301.58 224.83V38.52C301.58 35.82 299.69 34.73 297.35 36.08L67.8001 168.61C66.569 169.412 65.5444 170.492 64.8094 171.764C64.0745 173.036 63.6498 174.463 63.5701 175.93V362.24C63.5701 364.94 65.4601 366 67.7901 364.68Z" fill="#0A9396"/>
<path d="M67.7901 364.68L297.35 232.15C298.581 231.348 299.606 230.268 300.341 228.996C301.076 227.724 301.5 226.297 301.58 224.83V38.52C301.58 35.82 299.69 34.73 297.35 36.08L67.8001 168.61C66.569 169.412 65.5444 170.492 64.8094 171.764C64.0745 173.036 63.6498 174.463 63.5701 175.93V362.24C63.5701 364.94 65.4601 366 67.7901 364.68Z" fill="#37474F"/>
<path d="M67.1701 369.51C65.9689 370.028 64.6705 370.282 63.3627 370.254C62.0549 370.226 60.7683 369.918 59.5901 369.35C58.4063 368.551 57.4272 367.485 56.7322 366.238C56.0373 364.99 55.646 363.597 55.5901 362.17V345.26L63.5201 349.85V366.76C63.5601 369.22 65.1201 370.33 67.1701 369.51Z" fill="#263238"/>
<path d="M63.5601 349.85V366.75C63.5601 369.45 65.4501 370.54 67.7801 369.19L297.35 236.66C298.582 235.857 299.608 234.775 300.343 233.502C301.078 232.228 301.502 230.799 301.58 229.33V212.4L63.5601 349.85Z" fill="#37474F"/>
<path opacity="0.2" d="M63.5701 349.81V366.75C63.5701 369.45 65.4601 370.54 67.7901 369.19L297.35 236.66C298.582 235.857 299.608 234.775 300.343 233.502C301.078 232.228 301.502 230.799 301.58 229.33V212.4L63.5701 349.81Z" fill="black"/>
<path d="M71.5 328.63V178.57C71.5481 177.689 71.8031 176.831 72.2444 176.067C72.6857 175.302 73.3008 174.652 74.04 174.17L291.1 48.85C292.51 48.04 293.64 48.7 293.64 50.31V200.38C293.592 201.261 293.337 202.119 292.896 202.883C292.454 203.648 291.839 204.298 291.1 204.78L74 330.1C72.63 330.91 71.5 330.25 71.5 328.63Z" fill="#0A9396"/>
<path opacity="0.3" d="M71.5 328.63V178.57C71.5481 177.689 71.8031 176.831 72.2444 176.067C72.6857 175.302 73.3008 174.652 74.04 174.17L291.1 48.85C292.51 48.04 293.64 48.7 293.64 50.31V200.38C293.592 201.261 293.337 202.119 292.896 202.883C292.454 203.648 291.839 204.298 291.1 204.78L74 330.1C72.63 330.91 71.5 330.25 71.5 328.63Z" fill="black"/>
<path d="M182.57 286.5C181.41 287.25 180.443 288.263 179.748 289.456C179.053 290.65 178.649 291.991 178.57 293.37C178.57 295.9 180.35 296.93 182.57 295.66C183.731 294.911 184.699 293.899 185.394 292.705C186.089 291.511 186.492 290.169 186.57 288.79C186.54 286.26 184.76 285.23 182.57 286.5Z" fill="#455A64"/>
<path d="M64.8101 171.75C64.0569 173.02 63.6277 174.455 63.5601 175.93V349.85L55.6301 345.26V171.36C55.688 169.884 56.118 168.446 56.8801 167.18L64.8101 171.75Z" fill="#263238"/>
<path d="M365.87 245.19L345.73 256.82L365.87 268.45L386.01 256.82L365.87 245.19Z" fill="#455A64"/>
<path d="M386.01 256.8V303.05L365.87 314.68V268.46L386.01 256.8Z" fill="#37474F"/>
<path d="M365.87 268.46V314.68L345.73 303.05V256.8L365.87 268.46Z" fill="#263238"/>
<path d="M339.37 280.55L319.23 292.18L339.37 303.81L359.51 292.18L339.37 280.55Z" fill="#0A9396"/>
<path opacity="0.3" d="M339.37 280.55L319.23 292.18L339.37 303.81L359.51 292.18L339.37 280.55Z" fill="white"/>
<path d="M359.51 292.15V318.35L339.37 329.98V303.81L359.51 292.15Z" fill="#0A9396"/>
<path d="M339.37 303.81V329.98L319.23 318.35V292.16L339.37 303.81Z" fill="#0A9396"/>
<path opacity="0.1" d="M339.37 303.81V329.98L319.23 318.35V292.16L339.37 303.81Z" fill="black"/>
<path d="M312.87 284.97L292.73 296.6L312.87 308.23L333.01 296.6L312.87 284.97Z" fill="#0A9396"/>
<path opacity="0.88" d="M312.87 284.97L292.73 296.6L312.87 308.23L333.01 296.6L312.87 284.97Z" fill="white"/>
<path d="M333.01 296.58V333.65L312.87 345.28V308.23L333.01 296.58Z" fill="#0A9396"/>
<path opacity="0.75" d="M333.01 296.58V333.65L312.87 345.28V308.23L333.01 296.58Z" fill="white"/>
<path d="M312.87 308.23V345.28L292.73 333.65V296.58L312.87 308.23Z" fill="#0A9396"/>
<path opacity="0.6" d="M312.87 308.23V345.28L292.73 333.65V296.58L312.87 308.23Z" fill="white"/>
<path d="M286.37 324.25L266.23 335.88L286.37 347.51L306.51 335.88L286.37 324.25Z" fill="#0A9396"/>
<path opacity="0.3" d="M286.37 324.25L266.23 335.88L286.37 347.51L306.51 335.88L286.37 324.25Z" fill="black"/>
<path d="M306.51 335.85V348.95L286.37 360.58V347.51L306.51 335.85Z" fill="#0A9396"/>
<path opacity="0.4" d="M306.51 335.85V348.95L286.37 360.58V347.51L306.51 335.85Z" fill="black"/>
<path d="M286.37 347.51V360.58L266.23 348.95V335.85L286.37 347.51Z" fill="#0A9396"/>
<path opacity="0.55" d="M286.37 347.51V360.58L266.23 348.95V335.85L286.37 347.51Z" fill="black"/>
<path d="M176.65 405.6V413.23L169.12 392.76V385.15L176.65 405.6Z" fill="#263238"/>
<path d="M176.66 405.61V413.23L207.72 402.45V394.83L176.66 405.61Z" fill="#37474F"/>
<path d="M169.12 385.14L176.66 405.61L207.72 394.83C199.19 387.39 184.36 383.67 169.12 385.14Z" fill="#455A64"/>
<path d="M136.67 407C136.665 407.077 136.665 407.153 136.67 407.23V407Z" fill="#0A9396"/>
<path d="M173.56 415.22L169 436.92C150.17 435.08 136.56 425.56 136.72 414.67V407.25C136.72 418.05 150.29 427.48 169.01 429.3L172.17 414.39L173.56 415.22Z" fill="#0A9396"/>
<path opacity="0.4" d="M173.56 415.22L169 436.92C150.17 435.08 136.56 425.56 136.72 414.67V407.25C136.72 418.05 150.29 427.48 169.01 429.3L172.17 414.39L173.56 415.22Z" fill="black"/>
<path d="M172.48 429.55V437.17C180.253 437.608 188.037 436.531 195.4 434C204.28 430.92 210.55 426 213.06 420.23C213.796 418.551 214.19 416.743 214.22 414.91C214.22 414.18 214.22 407.03 214.22 407.03C214.22 407.03 212.07 406.86 209.55 404.18L203.73 406.18L177.1 415.42L172.48 429.55Z" fill="#0A9396"/>
<path opacity="0.6" d="M172.48 429.55V437.17C180.253 437.608 188.037 436.531 195.4 434C204.28 430.92 210.55 426 213.06 420.23C213.796 418.551 214.19 416.743 214.22 414.91C214.22 414.18 214.22 407.03 214.22 407.03C214.22 407.03 212.07 406.86 209.55 404.18L203.73 406.18L177.1 415.42L172.48 429.55Z" fill="white"/>
<path d="M149.3 398.31L172.44 411.67V404.05L149.3 390.69V398.31Z" fill="#0A9396"/>
<path opacity="0.1" d="M149.3 398.31L172.44 411.67V404.05L149.3 390.69V398.31Z" fill="black"/>
<path d="M137 404.5C134.47 416.41 148.71 427.32 169 429.3L173.61 407.6L146.83 392.14C141.19 395.65 138 399.7 137 404.5Z" fill="#0A9396"/>
<path opacity="0.3" d="M137 404.5C134.47 416.41 148.71 427.32 169 429.3L173.61 407.6L146.83 392.14C141.19 395.65 138 399.7 137 404.5Z" fill="black"/>
<path d="M172.61 428.92L172.48 429.55C180.251 430 188.035 428.937 195.4 426.42C204.28 423.34 210.55 418.42 213.06 412.65C215.42 407.18 214.17 401.52 209.55 396.65L203.73 398.65L177.1 407.89L172.61 428.92Z" fill="#0A9396"/>
<path opacity="0.75" d="M172.61 428.92L172.48 429.55C180.251 430 188.035 428.937 195.4 426.42C204.28 423.34 210.55 418.42 213.06 412.65C215.42 407.18 214.17 401.52 209.55 396.65L203.73 398.65L177.1 407.89L172.61 428.92Z" fill="white"/>
<path d="M149.3 390.69L172.44 404.05L165.64 385.57C159.928 386.27 154.391 388.005 149.3 390.69V390.69Z" fill="#0A9396"/>
<path d="M173.56 415.22V407.6L168.94 429.3V436.92L173.56 415.22Z" fill="#0A9396"/>
<path opacity="0.55" d="M173.56 415.22V407.6L168.94 429.3V436.92L173.56 415.22Z" fill="black"/>
<path d="M203.08 373.71L198.04 376.62L203.08 379.53L208.12 376.62L203.08 373.71Z" fill="#0A9396"/>
<path opacity="0.3" d="M203.08 373.71L198.04 376.62L203.08 379.53L208.12 376.62L203.08 373.71Z" fill="black"/>
<path d="M208.12 376.62V379.54L203.08 382.45V379.53L208.12 376.62Z" fill="#0A9396"/>
<path opacity="0.4" d="M208.12 376.62V379.54L203.08 382.45V379.53L208.12 376.62Z" fill="black"/>
<path d="M203.08 379.53V382.45L198.04 379.54V376.62L203.08 379.53Z" fill="#0A9396"/>
<path opacity="0.55" d="M203.08 379.53V382.45L198.04 379.54V376.62L203.08 379.53Z" fill="black"/>
<path d="M210.78 371.45L229.46 360.67C230.06 360.352 230.727 360.179 231.407 360.167C232.086 360.155 232.759 360.303 233.37 360.6C234.37 361.2 234.37 362.21 233.24 362.86L214.56 373.64C213.959 373.956 213.292 374.127 212.613 374.139C211.934 374.151 211.262 374.004 210.65 373.71C209.61 373.11 209.66 372.1 210.78 371.45Z" fill="#E0E0E0"/>
<path d="M214.44 380.27L209.4 383.18L214.44 386.09L219.48 383.18L214.44 380.27Z" fill="#0A9396"/>
<path opacity="0.88" d="M214.44 380.27L209.4 383.18L214.44 386.09L219.48 383.18L214.44 380.27Z" fill="white"/>
<path d="M219.48 383.17V386.09L214.44 389V386.09L219.48 383.17Z" fill="#0A9396"/>
<path opacity="0.75" d="M219.48 383.17V386.09L214.44 389V386.09L219.48 383.17Z" fill="white"/>
<path d="M214.44 386.09V389L209.4 386.09V383.17L214.44 386.09Z" fill="#0A9396"/>
<path opacity="0.6" d="M214.44 386.09V389L209.4 386.09V383.17L214.44 386.09Z" fill="white"/>
<path d="M222.14 378L240.81 367.22C241.41 366.9 242.076 366.726 242.755 366.712C243.435 366.698 244.108 366.845 244.72 367.14C245.77 367.75 245.72 368.76 244.6 369.4L225.92 380.2C225.319 380.516 224.652 380.687 223.973 380.699C223.294 380.711 222.622 380.564 222.01 380.27C221 379.66 221 378.65 222.14 378Z" fill="#E0E0E0"/>
<path d="M225.79 386.83L220.75 389.74L225.8 392.65L230.84 389.74L225.79 386.83Z" fill="#0A9396"/>
<path opacity="0.3" d="M225.79 386.83L220.75 389.74L225.8 392.65L230.84 389.74L225.79 386.83Z" fill="white"/>
<path d="M230.84 389.73V392.65L225.8 395.56V392.65L230.84 389.73Z" fill="#0A9396"/>
<path d="M225.8 392.65V395.56L220.75 392.65V389.73L225.8 392.65Z" fill="#0A9396"/>
<path opacity="0.1" d="M225.8 392.65V395.56L220.75 392.65V389.73L225.8 392.65Z" fill="black"/>
<path d="M233.49 384.57L252.17 373.78C252.771 373.464 253.438 373.293 254.117 373.281C254.796 373.269 255.468 373.416 256.08 373.71C257.13 374.32 257.08 375.33 255.96 375.97L237.28 386.75C236.681 387.07 236.014 387.244 235.335 387.258C234.655 387.272 233.982 387.125 233.37 386.83C232.32 386.22 232.38 385.21 233.49 384.57Z" fill="#E0E0E0"/>
<path d="M237.15 393.38L232.11 396.29L237.15 399.2L242.19 396.29L237.15 393.38Z" fill="#455A64"/>
<path d="M242.19 396.29V399.21L237.15 402.12V399.2L242.19 396.29Z" fill="#37474F"/>
<path d="M237.15 399.2V402.12L232.11 399.21V396.29L237.15 399.2Z" fill="#263238"/>
<path d="M244.85 391.13L263.53 380.34C264.131 380.024 264.798 379.853 265.477 379.841C266.156 379.829 266.828 379.976 267.44 380.27C268.49 380.87 268.44 381.88 267.31 382.53L248.64 393.31C248.04 393.628 247.373 393.801 246.693 393.813C246.014 393.825 245.341 393.677 244.73 393.38C243.68 392.78 243.74 391.77 244.85 391.13Z" fill="#E0E0E0"/>
<path d="M402.395 225.085C409.325 225.085 412.615 227.085 415.115 233.665C417.615 240.245 424.225 255.515 424.355 260.035C424.495 264.725 409.355 278.945 409.935 278.705C410.095 278.625 405.325 270.085 405.325 270.085L413.825 259.675L408.955 245.545L402.395 225.085Z" fill="#FFA8A7"/>
<path d="M410.975 380.455C411.405 380.865 411.485 381.255 411.465 382.735C411.445 384.215 412.075 385.865 411.315 387.245C410.755 388.245 407.855 388.985 406.385 388.245C405.104 387.407 403.958 386.378 402.985 385.195C402.071 384.153 401.067 383.192 399.985 382.325C398.735 381.395 397.285 380.775 395.985 379.925C394.966 379.266 394.111 378.382 393.483 377.343C392.856 376.303 392.474 375.135 392.365 373.925C392.281 373.136 392.442 372.34 392.825 371.645C393.137 371.273 393.546 370.994 394.007 370.842C394.469 370.69 394.963 370.671 395.435 370.785C396.845 371.015 401.625 373.685 402.725 374.445C404.165 375.385 410.535 380.035 410.975 380.455Z" fill="#263238"/>
<path d="M403.955 374.335C403.905 375.395 399.435 372.915 397.605 373.155H397.555C395.845 373.975 397.265 376.365 398.845 377.585C400.425 378.805 405.605 382.585 405.605 382.585L406.665 376.455L403.955 374.335Z" fill="#FFA8A7"/>
<path d="M384.555 391.605C385.385 391.605 385.755 394.325 385.915 396.415C386.025 398.035 386.645 400.685 386.065 401.875C385.485 403.065 383.315 403.805 379.945 403.735C377.755 403.735 374.335 405.125 371.995 406.395C369.639 407.529 366.978 407.863 364.415 407.345C361.415 406.955 358.335 405.175 357.865 403.935C357.395 402.695 358.035 402.095 365.135 399.175C365.205 399.175 372.635 395.905 376.135 392.175L384.555 391.605Z" fill="#263238"/>
<path d="M365.165 399.175C364.165 399.575 363.335 399.935 362.585 400.255C362.395 400.925 362.655 401.995 365.795 402.515C370.575 403.315 384.635 392.725 384.635 392.725C384.635 392.725 382.635 393.285 382.245 392.135H376.135C372.635 395.905 365.165 399.145 365.165 399.175Z" fill="#FFA8A7"/>
<path d="M413.825 345.675C413.899 341.014 413.436 336.36 412.445 331.805C412.445 331.805 413.285 313.945 413.375 302.725C413.565 280.525 413.145 277.265 408.235 267.725C408.235 267.725 379.565 264.375 378.355 278.345C376.855 295.745 375.105 324.855 375.145 333.145C375.145 339.315 375.885 346.005 376.225 359.995C376.445 368.995 377.385 381.615 376.105 392.215C377.725 394.935 382.105 394.885 384.605 392.765C385.325 382.385 390.485 362.505 391.285 355.575C391.719 350.569 391.511 345.529 390.665 340.575C390.665 340.575 394.465 310.935 395.135 306.425C396.108 311.195 396.663 316.04 396.795 320.905C396.795 322.905 397.475 329.475 398.605 340.575C399.295 347.335 404.075 373.755 405.115 382.245C407.515 384.565 410.615 382.965 410.755 381.965C411.555 371.605 413.825 352.145 413.825 345.675Z" fill="#FFA8A7"/>
<path opacity="0.15" d="M395.165 306.395L397.695 292.005C402.011 291.339 405.983 289.256 408.985 286.085C408.985 286.085 407.465 291.835 399.985 293.795L396.985 306.795L396.485 318.665L395.165 306.395Z" fill="black"/>
<path d="M387.945 220.255L389.135 233.295L400.595 232.605L399.715 218.135L387.945 220.255Z" fill="#FFA8A7"/>
<path d="M410.945 271.195C409.632 267.725 407.956 264.404 405.945 261.285C410.845 245.505 412.415 240.195 411.465 233.445C410.855 229.155 407.465 224.865 403.305 225.095H400.165C399.985 228.095 391.675 228.225 388.525 226.165L385.615 226.245C383.565 226.975 376.615 237.245 375.815 243.995C375.185 249.505 379.515 254.285 379.515 254.285C379.531 256.625 379.394 258.963 379.105 261.285C379.105 261.285 379.105 274.635 379.105 281.285C379.105 281.285 380.715 286.405 397.535 284.805C412.535 283.385 412.855 278.275 412.855 278.275C412.497 275.849 411.856 273.473 410.945 271.195V271.195Z" fill="#0A9396"/>
<g opacity="0.3">
<path opacity="0.3" d="M410.945 271.195C409.632 267.725 407.956 264.404 405.945 261.285C410.845 245.505 412.415 240.195 411.465 233.445C410.855 229.155 407.465 224.865 403.305 225.095H400.165C399.985 228.095 391.675 228.225 388.525 226.165L385.615 226.245C383.565 226.975 376.615 237.245 375.815 243.995C375.185 249.505 379.515 254.285 379.515 254.285C379.531 256.625 379.394 258.963 379.105 261.285C379.105 261.285 379.105 274.635 379.105 281.285C379.105 281.285 380.715 286.405 397.535 284.805C412.535 283.385 412.855 278.275 412.855 278.275C412.497 275.849 411.856 273.473 410.945 271.195V271.195Z" fill="black"/>
</g>
<path d="M389.675 189.735C387.985 189.513 386.266 189.701 384.663 190.282C383.06 190.864 381.62 191.822 380.465 193.075C374.605 199.675 381.035 204.535 381.035 204.535L389.675 189.735Z" fill="#263238"/>
<path d="M379.485 205.915C379.485 205.915 376.935 209.745 377.265 210.155C377.857 210.548 378.514 210.832 379.205 210.995L379.485 205.915Z" fill="#F28F8F"/>
<path d="M387.265 193.785C384.795 195.055 380.525 197.395 379.405 206.475C378.255 215.805 380.325 219.045 381.595 220.275C382.445 221.105 386.875 221.415 389.185 220.705C392.085 219.815 398.355 216.705 401.295 211.925C404.765 206.275 405.505 198.725 401.525 195.755C395.925 191.605 389.355 192.715 387.265 193.785Z" fill="#FFA8A7"/>
<path d="M386.035 204.515C380.865 201.885 382.185 195.025 382.185 195.025C382.185 195.025 389.565 184.475 403.185 191.295C407.895 193.655 410.725 199.015 410.615 205.295C410.615 209.215 409.058 212.975 406.286 215.746C403.515 218.518 399.755 220.075 395.835 220.075V220.075C393.549 220.075 391.357 219.167 389.74 217.551C388.123 215.934 387.215 213.742 387.215 211.455V210.885L387.655 211.025C388.358 211.192 389.092 211.181 389.79 210.994C390.488 210.807 391.129 210.451 391.655 209.955C393.925 207.955 394.195 204.165 391.325 203.205C388.455 202.245 386.965 205.605 386.965 205.605L385.855 208.605C385.587 208.508 385.341 208.359 385.131 208.167C384.921 207.975 384.75 207.743 384.629 207.485C384.509 207.227 384.44 206.947 384.427 206.662C384.415 206.378 384.458 206.093 384.555 205.825C384.676 205.503 384.874 205.215 385.132 204.986C385.39 204.758 385.7 204.596 386.035 204.515V204.515Z" fill="#263238"/>
<path d="M354.785 206.615L330.205 218.925L341.765 252.235L364.725 239.875L354.785 206.615Z" fill="#0A9396"/>
<path d="M353.615 209.835L332.995 220.165L343.235 248.815L362.495 238.445L353.615 209.835Z" fill="#F5F5F5"/>
<path opacity="0.15" d="M349.255 212.835L348.875 211.835C348.665 211.275 346.955 211.585 345.055 212.525L341.425 214.315C339.535 215.255 338.165 216.475 338.375 217.045L338.755 218.045L349.255 212.835Z" fill="black"/>
<path d="M348.925 208.785C348.795 208.425 348.055 208.475 347.265 208.885L345.845 209.615C345.845 209.615 345.015 207.415 341.745 208.875C338.475 210.335 339.175 212.875 339.175 212.875L337.665 213.675C336.835 214.115 336.235 214.765 336.325 215.115L336.495 215.765L349.165 209.435L348.925 208.785Z" fill="#37474F"/>
<path d="M347.545 210.225C346.365 210.785 345.905 211.055 346.225 211.925C346.545 212.795 346.935 213.625 346.935 213.625L341.335 216.435C341.335 216.435 340.895 215.175 340.695 214.695C340.495 214.215 340.105 213.965 339.215 214.415L338.885 214.055L347.725 209.745L347.545 210.225Z" fill="#263238"/>
<path d="M349.485 212.895L349.115 211.895C348.905 211.335 347.195 211.635 345.295 212.575L341.665 214.375C339.765 215.315 338.405 216.535 338.615 217.095L338.985 218.095L349.485 212.895Z" fill="#37474F"/>
<path d="M385.585 226.245C381.715 226.185 379.375 226.525 374.095 234.365C368.815 242.205 359.015 256.605 357.875 258.515C356.275 261.115 355.875 265.105 357.215 267.515C358.425 269.785 360.565 270.575 366.655 264.105C371.155 259.315 380.655 246.595 380.655 246.595C380.655 246.595 388.005 232.885 385.585 226.245Z" fill="#FFA8A7"/>
<path d="M359.615 269.185C356.425 270.185 344.715 256.245 341.465 252.055C338.85 248.565 335.776 245.443 332.325 242.775C327.815 239.325 328.565 234.155 330.635 229.445C331.355 227.805 333.635 228.915 333.635 228.915L334.425 231.185L335.785 235.115C336.735 236.025 337.285 236.325 337.345 236.055C337.475 235.555 336.685 233.445 336.735 231.255C336.805 228.625 338.625 230.385 339.155 231.315C339.884 232.731 340.509 234.199 341.025 235.705C341.905 238.075 341.485 240.445 342.585 242.075C343.685 243.705 359.585 256.905 359.585 256.905L359.615 269.185Z" fill="#FFA8A7"/>
<path d="M405.985 261.285C405.985 261.285 394.775 267.905 379.075 261.285C377.675 269.521 376.724 277.827 376.225 286.165C375.665 296.785 374.435 319.575 374.435 319.575C374.435 319.575 379.065 324.985 395.605 323.885C411.505 322.885 414.305 318.685 414.305 318.685C414.305 318.685 414.305 298.215 414.425 289.265C414.535 277.825 412.935 271.605 405.985 261.285Z" fill="#0A9396"/>
<path opacity="0.5" d="M405.985 261.285C405.985 261.285 394.775 267.905 379.075 261.285C377.675 269.521 376.724 277.827 376.225 286.165C375.665 296.785 374.435 319.575 374.435 319.575C374.435 319.575 379.065 324.985 395.605 323.885C411.505 322.885 414.305 318.685 414.305 318.685C414.305 318.685 414.305 298.215 414.425 289.265C414.535 277.825 412.935 271.605 405.985 261.285Z" fill="black"/>
<path d="M411.165 200.895L413.795 198.495C413.442 198.115 412.971 197.866 412.458 197.787C411.945 197.709 411.421 197.806 410.97 198.063C410.519 198.32 410.169 198.722 409.976 199.204C409.782 199.685 409.758 200.218 409.905 200.715C409.585 200.715 409.255 200.665 408.905 200.665V221.745C408.905 224.654 410.057 227.444 412.109 229.506C414.162 231.567 416.947 232.732 419.855 232.745V211.605C419.845 209.097 418.978 206.667 417.397 204.719C415.817 202.771 413.618 201.422 411.165 200.895V200.895Z" fill="#263238"/>
</svg>
